<?xml version="1.0" encoding="UTF-8"?>
<svg version="1.1" xmlns="http://www.w3.org/2000/svg" width="256" height="123">
<path d="M0 0 C4.29 -0.0825 8.58 -0.165 13 -0.25 C14.33675781 -0.28641602 15.67351562 -0.32283203 17.05078125 -0.36035156 C24.20767174 -0.42677779 28.96420245 0.05047336 35 4 C39.57234741 8.80682676 40.40828652 12.90393245 40.3515625 19.3515625 C39.7934431 23.55606199 37.98777791 26.98863437 35 30 C33.67777503 30.37498004 32.34417733 30.71351059 31 31 C31.97453125 32.69769531 31.97453125 32.69769531 32.96875 34.4296875 C33.81272401 35.91133076 34.65646181 37.39310858 35.5 38.875 C35.92925781 39.62136719 36.35851562 40.36773437 36.80078125 41.13671875 C37.20683594 41.85214844 37.61289063 42.56757812 38.03125 43.3046875 C38.40830078 43.96452637 38.78535156 44.62436523 39.17382812 45.30419922 C40 47 40 47 40 49 C35.75922627 49.82695088 32.20204982 50.12225477 28 49 C24.53278473 45.20182327 20 39.35547777 20 34 C17.69 34 15.38 34 13 34 C13 38.95 13 43.9 13 49 C8.71 49 4.42 49 0 49 C0 32.83 0 16.66 0 0 Z M13 11 C13 14.96 13 18.92 13 23 C17.92127034 23.16682272 21.50343896 23.24828052 26 21 C26.33 18.69 26.66 16.38 27 14 C23.85408067 11.19954377 21.932936 10.64738411 17.75 10.8125 C15.39875 10.9053125 15.39875 10.9053125 13 11 Z " fill="#000000" transform="translate(72,31)"/>
<path d="M0 0 C4.29 0 8.58 0 13 0 C13.33 5.94 13.66 11.88 14 18 C16.041875 15.7725 16.041875 15.7725 18.125 13.5 C18.9603125 12.59507813 19.795625 11.69015625 20.65625 10.7578125 C22.70210733 8.35052037 24.09572343 6.11005233 25.625 3.375 C26.984375 1.4296875 26.984375 1.4296875 29 0 C34.09052688 -0.67658902 38.89959955 -0.46721225 44 0 C42.47650967 3.53320099 40.3697049 5.95208388 37.75 8.75 C33.82652094 12.94406382 30.38668207 17.37182322 27 22 C27.46897705 22.61520508 27.9379541 23.23041016 28.42114258 23.86425781 C30.55175413 26.65938399 32.68212948 29.45469011 34.8125 32.25 C35.55048828 33.21808594 36.28847656 34.18617187 37.04882812 35.18359375 C37.76103516 36.11816406 38.47324219 37.05273438 39.20703125 38.015625 C39.8616333 38.87446289 40.51623535 39.73330078 41.19067383 40.61816406 C41.78775146 41.40416992 42.3848291 42.19017578 43 43 C43.57322998 43.72155273 44.14645996 44.44310547 44.73706055 45.18652344 C46 47 46 47 46 49 C41.27364395 50.08415663 36.59044739 50.85758227 32 49 C26.59259801 44.34699254 22.74182234 38.01250085 19 32 C15.97149253 34.60345379 14.19160762 36.15629132 13.29296875 40.11328125 C13.25816406 41.16902344 13.22335938 42.22476563 13.1875 43.3125 C13.125625 45.189375 13.06375 47.06625 13 49 C8.71 49 4.42 49 0 49 C0 32.83 0 16.66 0 0 Z " fill="#000000" transform="translate(136,31)"/>
<path d="M0 0 C11.55 0 23.1 0 35 0 C35 3.63 35 7.26 35 11 C27.41 11 19.82 11 12 11 C12 13.64 12 16.28 12 19 C18.93 19 25.86 19 33 19 C33 22.3 33 25.6 33 29 C26.07 29 19.14 29 12 29 C12 31.97 12 34.94 12 38 C19.59 38 27.18 38 35 38 C35 41.63 35 45.26 35 49 C23.45 49 11.9 49 0 49 C0 32.83 0 16.66 0 0 Z " fill="#000000" transform="translate(186,31)"/>
<path d="M0 0 C0.495 0.495 0.495 0.495 1 1 C0.71269945 3.33944736 0.38063221 5.6739143 0 8 C0.886875 8.103125 1.77375 8.20625 2.6875 8.3125 C6.0573702 9.01190702 8.17271538 10.08742511 11 12 C11.721875 11.319375 12.44375 10.63875 13.1875 9.9375 C16 8 16 8 18.25 8.125 C19.61125 8.558125 19.61125 8.558125 21 9 C25.52445512 10.17236361 29.74372645 11.12801201 34.4375 11 C35.613125 11 36.78875 11 38 11 C40 13 40 13 40.1875 15.9375 C40 19 40 19 39 22 C39.87650069 24.32438214 39.87650069 24.32438214 41.25 26.75 C42.833139 29.73795739 44.30458075 32.65019908 45.5 35.8125 C47.16110079 39.34233918 49.22810139 41.30104609 52 44 C52.6484375 46.14453125 52.6484375 46.14453125 53 48 C53.60328125 47.855625 54.2065625 47.71125 54.828125 47.5625 C55.62734375 47.376875 56.4265625 47.19125 57.25 47 C58.03890625 46.814375 58.8278125 46.62875 59.640625 46.4375 C62 46 62 46 66 46 C65.71937037 52.59479634 63.27094499 57.00546516 59 62 C56.72828695 63.97440832 54.41339848 65.75995413 51.953125 67.4921875 C49.75244327 69.02504702 49.75244327 69.02504702 48 72 C47.01 72 46.02 72 45 72 C46.36242426 68.93286756 47.89699705 66.88159707 50.3125 64.5625 C50.93253906 63.95664062 51.55257812 63.35078125 52.19140625 62.7265625 C53.7005268 61.28589018 55.22358777 59.85983867 56.75 58.4375 C59.17961036 55.80542211 60.55818309 53.26305932 62 50 C57.05 50.495 57.05 50.495 52 51 C51.4225 50.071875 50.845 49.14375 50.25 48.1875 C48.29130036 45.0441549 48.29130036 45.0441549 46 43.5625 C42.5502881 40.86741258 40.36141149 36.99620737 39.58203125 32.69140625 C38.5880152 28.09491594 36.24418206 24.06362386 34.1796875 19.86328125 C33.79039062 18.91839844 33.40109375 17.97351563 33 17 C33.33 16.34 33.66 15.68 34 15 C33.01 15 32.02 15 31 15 C25.96579523 14.54931881 20.97549223 13.89303707 16 13 C15.34 13.99 14.68 14.98 14 16 C9.17839065 15.5272932 5.99585365 14.73400513 2 12 C1.071875 11.5875 0.14375 11.175 -0.8125 10.75 C-1.534375 10.1725 -2.25625 9.595 -3 9 C-3.3125 5.3125 -3.3125 5.3125 -3 2 C-3.969375 2.28875 -4.93875 2.5775 -5.9375 2.875 C-9.6191182 3.93440442 -13.33255953 4.7542852 -17.08203125 5.53515625 C-19.06800095 5.94068618 -19.06800095 5.94068618 -21 7 C-22.11375 6.938125 -23.2275 6.87625 -24.375 6.8125 C-27.96325217 6.68532792 -27.96325217 6.68532792 -30.3125 8.5625 C-32.39344636 11.56831141 -33.0428173 14.49033012 -34 18 C-35.5 19.9375 -35.5 19.9375 -37 21 C-37.66 21 -38.32 21 -39 21 C-39.309375 21.78375 -39.61875 22.5675 -39.9375 23.375 C-41 26 -41 26 -42 28 C-42.99 28 -43.98 28 -45 28 C-44.70665539 24.57764622 -44.25409741 23.24703915 -41.75 20.8125 C-38.5375873 17.52707792 -36.99688605 14.25698686 -35.11328125 10.109375 C-34 8 -34 8 -32 7 C-30.86649466 4.98330173 -30.86649466 4.98330173 -30 3 C-28.5459375 3.0928125 -28.5459375 3.0928125 -27.0625 3.1875 C-23.99285085 3.20584452 -21.77887889 2.63335899 -18.9375 1.5 C-12.82764115 -0.74487015 -6.42309671 -0.45879262 0 0 Z " fill="#000000" transform="translate(190,0)"/>
<path d="M0 0 C3.96 0 7.92 0 12 0 C12 16.17 12 32.34 12 49 C8.04 49 4.08 49 0 49 C0 32.83 0 16.66 0 0 Z " fill="#000000" transform="translate(117,31)"/>
<path d="M0 0 C3.36596411 0.67319282 4.4728702 1.74889528 6.5 4.5 C6.561875 5.44875 6.62375 6.3975 6.6875 7.375 C7.83598712 11.79225814 10.22600453 13.1138953 14.015625 15.44921875 C17.89564709 17.09029728 20.42391048 16.32903516 24.5 15.5 C25.84090759 16.15129797 27.17592331 16.81513275 28.5 17.5 C31.07616923 16.66953416 31.07616923 16.66953416 33.5 15.5 C34.49 15.5 35.48 15.5 36.5 15.5 C36.561875 14.571875 36.62375 13.64375 36.6875 12.6875 C37.5 9.5 37.5 9.5 39.6875 7.5 C42.5 6.5 42.5 6.5 45.6875 7.125 C48.5 8.5 48.5 8.5 50.5 11.5 C51.00734682 14.79775432 50.81057067 16.05803405 48.875 18.8125 C45.83857062 20.96996298 44.15422636 20.96649698 40.5 20.5 C39.51 19.84 38.52 19.18 37.5 18.5 C34.82854463 19.30161791 34.82854463 19.30161791 32.5 20.5 C32.5 21.16 32.5 21.82 32.5 22.5 C31.84 22.5 31.18 22.5 30.5 22.5 C30.005 23.985 30.005 23.985 29.5 25.5 C26.33385401 28.15072687 24.48926333 29.48060268 20.3125 29.5625 C17.5 28.5 17.5 28.5 15.6875 26.1875 C14.5 23.5 14.5 23.5 14.18359375 21.5390625 C12.9816176 17.95373934 9.98688806 16.57953639 6.91796875 14.61328125 C3.54601946 13.06076825 1.06468746 13.80104167 -2.5 14.5 C-4.9375 12.9375 -4.9375 12.9375 -6.5 10.5 C-7.11793165 6.79241009 -7.00197249 5.2064798 -4.8125 2.125 C-2.5 0.5 -2.5 0.5 0 0 Z " fill="#000000" transform="translate(6.5,25.5)"/>
<path d="M0 0 C4.62 0 9.24 0 14 0 C14 12.21 14 24.42 14 37 C9.38 37 4.76 37 0 37 C0 24.79 0 12.58 0 0 Z " fill="#000000" transform="translate(0,43)"/>
<path d="M0 0 C5 0 5 0 8 1 C8 5.95 8 10.9 8 16 C11.3 15.67 14.6 15.34 18 15 C19.98 10.05 21.96 5.1 24 0 C26.31 0 28.62 0 31 0 C33.64 7.59 36.28 15.18 39 23 C37.02 23 35.04 23 33 23 C32.67 21.35 32.34 19.7 32 18 C31.34 18.99 30.68 19.98 30 21 C28.02 20.67 26.04 20.34 24 20 C23.67 20.66 23.34 21.32 23 22 C20.54724859 23.2263757 18.9494219 23.11415314 16.2109375 23.09765625 C15.36321777 23.09515869 14.51549805 23.09266113 13.64208984 23.09008789 C12.5639502 23.08098389 11.48581055 23.07187988 10.375 23.0625 C6.95125 23.041875 3.5275 23.02125 0 23 C0 15.41 0 7.82 0 0 Z M27 6 C25.74335022 8.90600261 25 10.79604584 25 14 C26.65 14 28.3 14 30 14 C29.34 11.36 28.68 8.72 28 6 C27.67 6 27.34 6 27 6 Z M5 17 C5 17.33 5 17.66 5 18 C8.63 18 12.26 18 16 18 C16 17.67 16 17.34 16 17 C12.37 17 8.74 17 5 17 Z M16 18 C17 21 17 21 17 21 Z " fill="#076D49" transform="translate(145,87)"/>
<path d="M0 0 C4.62 0 9.24 0 14 0 C14 9.9 14 19.8 14 30 C9.38 30 4.76 30 0 30 C0 20.1 0 10.2 0 0 Z " fill="#000000" transform="translate(43,50)"/>
<path d="M0 0 C1.98 0 3.96 0 6 0 C7.98 4.29 9.96 8.58 12 13 C13.65 8.71 15.3 4.42 17 0 C19.31 0 21.62 0 24 0 C24 7.59 24 15.18 24 23 C22.35 23 20.7 23 19 23 C18.505 18.05 18.505 18.05 18 13 C16.68 16.3 15.36 19.6 14 23 C11.36 22.67 8.72 22.34 6 22 C6 19.36 6 16.72 6 14 C5.67 16.97 5.34 19.94 5 23 C3.35 23 1.7 23 0 23 C0 15.41 0 7.82 0 0 Z M7 17 C8 19 8 19 8 19 Z " fill="#076E4A" transform="translate(1,87)"/>
<path d="M0 0 C4.29 0 8.58 0 13 0 C13 7.92 13 15.84 13 24 C8.71 24 4.42 24 0 24 C0 16.08 0 8.16 0 0 Z " fill="#076E49" transform="translate(22,56)"/>
<path d="M0 0 C5.28 0 10.56 0 16 0 C16 1.65 16 3.3 16 5 C12.37 5 8.74 5 5 5 C6.03406673 6.25949049 6.03406673 6.25949049 8.28515625 6.09765625 C9.20167969 6.08605469 10.11820313 6.07445313 11.0625 6.0625 C11.98160156 6.05347656 12.90070313 6.04445313 13.84765625 6.03515625 C14.55792969 6.02355469 15.26820312 6.01195313 16 6 C15.67 8.31 15.34 10.62 15 13 C11.7 13 8.4 13 5 13 C5 13.99 5 14.98 5 16 C5.33 15.34 5.66 14.68 6 14 C8.97 14 11.94 14 15 14 C16 18 16 18 16 23 C10.72 23 5.44 23 0 23 C0 15.41 0 7.82 0 0 Z " fill="#076F4A" transform="translate(90,87)"/>
<path d="M0 0 C13.33333333 -0.49382716 13.33333333 -0.49382716 16.42578125 1.796875 C18.7024252 4.98304668 18.47778994 7.17768049 18 11 C16.5 13.4375 16.5 13.4375 15 15 C15.495 15.763125 15.99 16.52625 16.5 17.3125 C18 20 18 20 18 23 C16.35 23 14.7 23 13 23 C11.58398438 20.31445312 11.58398438 20.31445312 10.16796875 17.62890625 C9.00980201 15.67732013 9.00980201 15.67732013 6 15 C6 17.64 6 20.28 6 23 C4.02 23 2.04 23 0 23 C0 15.41 0 7.82 0 0 Z M6 4 C6 5.98 6 7.96 6 10 C7.98 10 9.96 10 12 10 C12.6814823 8.10820797 12.6814823 8.10820797 13 6 C11.16116119 3.71271266 11.16116119 3.71271266 8.375 3.875 C7.199375 3.936875 7.199375 3.936875 6 4 Z " fill="#076E49" transform="translate(49,87)"/>
<path d="M0 0 C1.4540625 0.0309375 1.4540625 0.0309375 2.9375 0.0625 C10.9375 19.03483202 10.9375 19.03483202 10.9375 23.0625 C9.2875 23.0625 7.6375 23.0625 5.9375 23.0625 C5.70289062 22.41796875 5.46828125 21.7734375 5.2265625 21.109375 C4.12588927 18.8547092 4.12588927 18.8547092 1.7734375 18.453125 C0.55527344 18.38351563 0.55527344 18.38351563 -0.6875 18.3125 C-1.50476562 18.25578125 -2.32203125 18.1990625 -3.1640625 18.140625 C-4.10378906 18.10195312 -4.10378906 18.10195312 -5.0625 18.0625 C-5.3925 19.7125 -5.7225 21.3625 -6.0625 23.0625 C-7.7125 23.0625 -9.3625 23.0625 -11.0625 23.0625 C-6.78854167 0.13854167 -6.78854167 0.13854167 0 0 Z M-1.0625 7.0625 C-0.7325 8.3825 -0.4025 9.7025 -0.0625 11.0625 C0.2675 10.0725 0.5975 9.0825 0.9375 8.0625 C0.2775 7.7325 -0.3825 7.4025 -1.0625 7.0625 Z M-2.0625 10.0625 C-1.0625 12.0625 -1.0625 12.0625 -1.0625 12.0625 Z M0.9375 11.0625 C0.9375 11.7225 0.9375 12.3825 0.9375 13.0625 C-0.3825 13.3925 -1.7025 13.7225 -3.0625 14.0625 C-1.0825 14.0625 0.8975 14.0625 2.9375 14.0625 C2.2775 13.0725 1.6175 12.0825 0.9375 11.0625 Z " fill="#066F4A" transform="translate(37.0625,86.9375)"/>
<path d="M0 0 C1.65 0 3.3 0 5 0 C5.33 2.64 5.66 5.28 6 8 C6.43570313 7.4225 6.87140625 6.845 7.3203125 6.25 C12.24528302 0.10977702 12.24528302 0.10977702 16.4375 -0.5 C17.7059375 -0.2525 17.7059375 -0.2525 19 0 C14.85714286 6.42857143 14.85714286 6.42857143 12 9 C13.33442606 13.403606 15.69297007 16.14241507 18.7578125 19.44921875 C20 21 20 21 20 23 C17.375 23.5 17.375 23.5 14 23 C11.6317567 20.56775013 9.80488213 17.86733048 8 15 C7.01 15.495 7.01 15.495 6 16 C5.59270772 18.32156597 5.25561323 20.6568787 5 23 C3.35 23 1.7 23 0 23 C0 15.41 0 7.82 0 0 Z " fill="#076E4A" transform="translate(69,87)"/>
<path d="M0 0 C4.95 0 9.9 0 15 0 C15 1.65 15 3.3 15 5 C11.7 5 8.4 5 5 5 C5 6.32 5 7.64 5 9 C7.97 9 10.94 9 14 9 C14 10.32 14 11.64 14 13 C11.03 13 8.06 13 5 13 C5 14.65 5 16.3 5 18 C8.63 18 12.26 18 16 18 C16 19.65 16 21.3 16 23 C10.72 23 5.44 23 0 23 C-1.16167056 15.15872375 -1.56174159 7.80870794 0 0 Z " fill="#076F49" transform="translate(205,87)"/>
<path d="M0 0 C12.00763359 -0.60644614 12.00763359 -0.60644614 16.375 2.0625 C18 5 18 5 18.0625 8.625 C17 12 17 12 15.4375 13.9375 C11.8556202 15.49883222 8.89006898 15.19450345 5 15 C5 17.64 5 20.28 5 23 C3.35 23 1.7 23 0 23 C0 15.41 0 7.82 0 0 Z M5 4 C5 5.98 5 7.96 5 10 C7.31 10 9.62 10 12 10 C12 8.35 12 6.7 12 5 C11.67 6.32 11.34 7.64 11 9 C9.35 9 7.7 9 6 9 C6 7.68 6 6.36 6 5 C7.32 4.67 8.64 4.34 10 4 C8.35 4 6.7 4 5 4 Z M7 6 C7 6.66 7 7.32 7 8 C7.99 8 8.98 8 10 8 C10 7.34 10 6.68 10 6 C9.01 6 8.02 6 7 6 Z " fill="#086E49" transform="translate(126,87)"/>
<path d="M0 0 C2.875 2.375 2.875 2.375 5 5 C5 5.99 5 6.98 5 8 C2.625 8.1875 2.625 8.1875 0 8 C-0.66 7.01 -1.32 6.02 -2 5 C-4.5 4.5 -4.5 4.5 -7 5 C-9.23551759 8.35327639 -9.17283528 8.90743657 -8.625 12.6875 C-8.51414063 13.49574219 -8.40328125 14.30398437 -8.2890625 15.13671875 C-8.19367188 15.75160156 -8.09828125 16.36648437 -8 17 C-5.08365871 17.2502157 -5.08365871 17.2502157 -2 17 C-1.34 16.01 -0.68 15.02 0 14 C2.625 13.8125 2.625 13.8125 5 14 C4.71897086 17.37234971 4.19628348 18.78639739 1.875 21.3125 C-1.7573828 23.44455077 -3.84417945 23.51947757 -8 23 C-11.83132006 21.29719109 -13.4490927 19.8465234 -15 16 C-15.66934214 11.21342537 -15.7052646 7.25380373 -13.3125 3 C-8.94647233 -0.77602393 -5.59587131 -1.74870978 0 0 Z " fill="#076F4A" transform="translate(198,87)"/>
<path d="M0 0 C5.94 0 11.88 0 18 0 C18 7.26 18 14.52 18 22 C17.67 22 17.34 22 17 22 C17 16.72 17 11.44 17 6 C15.68 6 14.36 6 13 6 C13 11.28 13 16.56 13 22 C12.67 22 12.34 22 12 22 C12.01160156 20.78441406 12.02320312 19.56882812 12.03515625 18.31640625 C12.04453278 16.73177236 12.05363313 15.14713682 12.0625 13.5625 C12.07087891 12.76005859 12.07925781 11.95761719 12.08789062 11.13085938 C12.0965143 9.08704779 12.0522815 7.04316098 12 5 C11.67 4.67 11.34 4.34 11 4 C11 10.27 11 16.54 11 23 C9.35 23 7.7 23 6 23 C6 16.73 6 10.46 6 4 C4.02 4 2.04 4 0 4 C0 2.68 0 1.36 0 0 Z " fill="#096E4A" transform="translate(107,87)"/>
<path d="M0 0 C2.0625 1.625 2.0625 1.625 4 4 C3.60143508 8.48064117 2.30580224 12.58389335 0.8125 16.8125 C0.42707031 17.95332031 0.04164063 19.09414062 -0.35546875 20.26953125 C-2 23 -2 23 -5.17578125 23.88671875 C-6.57376953 23.94279297 -6.57376953 23.94279297 -8 24 C-10.21716245 21.52701111 -11.00914849 19.68715326 -10.96484375 16.359375 C-9.91872933 8.76234987 -9.91872933 8.76234987 -6.0625 5.5625 C-4.5465625 4.7890625 -4.5465625 4.7890625 -3 4 C-1.16699091 1.89424357 -1.16699091 1.89424357 0 0 Z M0 4 C-0.99 5.485 -0.99 5.485 -2 7 C-2.99 7.66 -3.98 8.32 -5 9 C-4.01 9 -3.02 9 -2 9 C-1.67 10.32 -1.34 11.64 -1 13 C-0.34 10.03 0.32 7.06 1 4 C0.67 4 0.34 4 0 4 Z M-4 10 C-3 13 -3 13 -3 13 Z M-6 11 C-5 15 -5 15 -5 15 Z M-3 13 C-2 15 -2 15 -2 15 Z M-7 15 C-8.01111093 18.04913228 -8.01111093 18.04913228 -7 21 C-6.01 21 -5.02 21 -4 21 C-3.67 19.02 -3.34 17.04 -3 15 C-3.66 15.66 -4.32 16.32 -5 17 C-5.66 16.34 -6.32 15.68 -7 15 Z " fill="#000000" transform="translate(249,84)"/>
<path d="M0 0 C0.99 0 1.98 0 3 0 C3.66 2.31 4.32 4.62 5 7 C11.17764408 6.72543804 15.17789247 5.97823872 20 2 C20.33 1.34 20.66 0.68 21 0 C21.99 0 22.98 0 24 0 C22.64530893 4.43353442 20.97128752 6.58269455 17 9 C14.33552509 9.65925152 11.7363774 9.8714813 9 10 C7.329375 10.12375 7.329375 10.12375 5.625 10.25 C4.75875 10.1675 3.8925 10.085 3 10 C0.70366176 6.55549263 0.45983515 4.06187717 0 0 Z " fill="#000000" transform="translate(198,113)"/>
<path d="M0 0 C0.33 0 0.66 0 1 0 C1 16.17 1 32.34 1 49 C0.34 49 -0.32 49 -1 49 C-0.67 32.83 -0.34 16.66 0 0 Z " fill="#000000" transform="translate(184,31)"/>
<path d="M0 0 C0.33 0 0.66 0 1 0 C1 16.17 1 32.34 1 49 C0.67 49 0.34 49 0 49 C0 32.83 0 16.66 0 0 Z " fill="#000000" transform="translate(134,31)"/>
<path d="M0 0 C0.33 0 0.66 0 1 0 C1 16.17 1 32.34 1 49 C0.67 49 0.34 49 0 49 C0 32.83 0 16.66 0 0 Z " fill="#000000" transform="translate(115,31)"/>
<path d="M0 0 C0.33 0 0.66 0 1 0 C1 16.17 1 32.34 1 49 C0.67 49 0.34 49 0 49 C0 32.83 0 16.66 0 0 Z " fill="#000000" transform="translate(70,31)"/>
<path d="M0 0 C6.27 0 12.54 0 19 0 C19 0.33 19 0.66 19 1 C13.06 1 7.12 1 1 1 C1 2.65 1 4.3 1 6 C7.93 6 14.86 6 22 6 C22 6.33 22 6.66 22 7 C14.74 7 7.48 7 0 7 C0 4.69 0 2.38 0 0 Z " fill="#000000" transform="translate(199,61)"/>
<path d="M0 0 C6.93 0 13.86 0 21 0 C21 0.33 21 0.66 21 1 C14.4 1 7.8 1 1 1 C1 2.32 1 3.64 1 5 C6.94 5 12.88 5 19 5 C19 5.33 19 5.66 19 6 C12.73 6 6.46 6 0 6 C0 4.02 0 2.04 0 0 Z " fill="#000000" transform="translate(199,43)"/>
<path d="M0 0 C0.99 0.33 1.98 0.66 3 1 C2.67 13.21 2.34 25.42 2 38 C1.67 38 1.34 38 1 38 C0.67 25.46 0.34 12.92 0 0 Z " fill="#010000" transform="translate(14,42)"/>
<path d="M0 0 C11.55 0 23.1 0 35 0 C35 0.33 35 0.66 35 1 C23.45 1 11.9 1 0 1 C0 0.67 0 0.34 0 0 Z " fill="#020302" transform="translate(186,81)"/>
<path d="M0 0 C11.22 0 22.44 0 34 0 C34 0.33 34 0.66 34 1 C22.78 1 11.56 1 0 1 C0 0.67 0 0.34 0 0 Z " fill="#000000" transform="translate(186,29)"/>
<path d="M0 0 C0.33 0 0.66 0 1 0 C1 9.9 1 19.8 1 30 C0.67 30 0.34 30 0 30 C0 20.1 0 10.2 0 0 Z " fill="#000000" transform="translate(41,50)"/>
<path d="M0 0 C0.33 0 0.66 0 1 0 C1 9.9 1 19.8 1 30 C0.67 30 0.34 30 0 30 C0 20.1 0 10.2 0 0 Z " fill="#000000" transform="translate(58,50)"/>
<path d="M0 0 C8.91 0 17.82 0 27 0 C27 0.33 27 0.66 27 1 C18.09 1 9.18 1 0 1 C0 0.67 0 0.34 0 0 Z " fill="#000000" transform="translate(72,29)"/>
<path d="M0 0 C0.33 0 0.66 0 1 0 C1 7.59 1 15.18 1 23 C0.67 23 0.34 23 0 23 C0 15.41 0 7.82 0 0 Z " fill="#0B6C49" transform="translate(36,57)"/>
<path d="M0 0 C0.33 0 0.66 0 1 0 C1 7.59 1 15.18 1 23 C0.67 23 0.34 23 0 23 C0 15.41 0 7.82 0 0 Z " fill="#11694C" transform="translate(20,57)"/>
<path d="M0 0 C0.33 0 0.66 0 1 0 C1 6.27 1 12.54 1 19 C0.34 18.67 -0.32 18.34 -1 18 C-1.02690844 15.37493198 -1.04679404 12.75013827 -1.0625 10.125 C-1.07087891 9.37863281 -1.07925781 8.63226563 -1.08789062 7.86328125 C-1.11328125 2.2265625 -1.11328125 2.2265625 0 0 Z " fill="#0C6D4A" transform="translate(88,88)"/>
<path d="M0 0 C1.65 0 3.3 0 5 0 C5 5.61 5 11.22 5 17 C4.67 17 4.34 17 4 17 C4 11.72 4 6.44 4 1 C2.68 0.67 1.36 0.34 0 0 Z " fill="#076F4A" transform="translate(107,92)"/>
<path d="M0 0 C0.33 0 0.66 0 1 0 C1 5.94 1 11.88 1 18 C-1.51005664 14.23491505 -1.0258295 11.60538391 -0.625 7.3125 C-0.56828125 6.61060547 -0.5115625 5.90871094 -0.453125 5.18554688 C-0.31195359 3.45619715 -0.15728041 1.72795912 0 0 Z " fill="#056F49" transform="translate(47,87)"/>
<path d="M0 0 C0.33 0 0.66 0 1 0 C1.22185844 2.26955186 1.42705515 4.54073755 1.625 6.8125 C1.74101562 8.07707031 1.85703125 9.34164062 1.9765625 10.64453125 C2 14 2 14 0 17 C0 11.39 0 5.78 0 0 Z " fill="#086E4A" transform="translate(26,87)"/>
<path d="M0 0 C0.79921875 0.11085937 1.5984375 0.22171875 2.421875 0.3359375 C3.32679687 0.47902344 3.32679687 0.47902344 4.25 0.625 C4.25 0.955 4.25 1.285 4.25 1.625 C-0.04 1.625 -4.33 1.625 -8.75 1.625 C-4.77033543 -0.36483228 -4.07324868 -0.59900716 0 0 Z " fill="#000000" transform="translate(51.75,47.375)"/>
<path d="M0 0 C5.61 0 11.22 0 17 0 C12.60405194 2.19797403 11.00732024 2.10073202 6.25 1.625 C5.07953125 1.51414062 3.9090625 1.40328125 2.703125 1.2890625 C1.81109375 1.19367188 0.9190625 1.09828125 0 1 C0 0.67 0 0.34 0 0 Z " fill="#17553E" transform="translate(205,111)"/>
<path d="M0 0 C2.64 0 5.28 0 8 0 C8.33 0.99 8.66 1.98 9 3 C6.03 3 3.06 3 0 3 C0 2.01 0 1.02 0 0 Z " fill="#066F4A" transform="translate(211,101)"/>
<path d="M0 0 C5.94 0 11.88 0 18 0 C18 0.33 18 0.66 18 1 C12.06 1 6.12 1 0 1 C0 0.67 0 0.34 0 0 Z " fill="#09714C" transform="translate(107,85)"/>
<path d="M0 0 C2.97 0 5.94 0 9 0 C9 0.33 9 0.66 9 1 C6.36 1 3.72 1 1 1 C1 3.97 1 6.94 1 10 C0.67 10 0.34 10 0 10 C0 6.7 0 3.4 0 0 Z " fill="#000000" transform="translate(86,43)"/>
<path d="M0 0 C3.63 0 7.26 0 11 0 C11.33 0.66 11.66 1.32 12 2 C7.71 2 3.42 2 -1 2 C-0.67 1.34 -0.34 0.68 0 0 Z " fill="#000000" transform="translate(2,40)"/>
<path d="M0 0 C0.33 0 0.66 0 1 0 C1.33 5.28 1.66 10.56 2 16 C1.34 16.33 0.68 16.66 0 17 C0 11.39 0 5.78 0 0 Z " fill="#000000" transform="translate(150,31)"/>
<path d="M0 0 C2.97 0 5.94 0 9 0 C8.67 0.66 8.34 1.32 8 2 C5.36 2 2.72 2 0 2 C0 1.34 0 0.68 0 0 Z " fill="#066F49" transform="translate(211,93)"/>
<path d="M0 0 C1.65 0 3.3 0 5 0 C3.68 0.33 2.36 0.66 1 1 C1 4.96 1 8.92 1 13 C0.67 13 0.34 13 0 13 C0 8.71 0 4.42 0 0 Z " fill="#000000" transform="translate(86,66)"/>
<path d="M0 0 C5.28 0 10.56 0 16 0 C16 0.33 16 0.66 16 1 C10.72 1 5.44 1 0 1 C0 0.67 0 0.34 0 0 Z " fill="#086946" transform="translate(90,85)"/>
<path d="M0 0 C4.95 0 9.9 0 15 0 C15 0.33 15 0.66 15 1 C10.05 1 5.1 1 0 1 C0 0.67 0 0.34 0 0 Z " fill="#18664A" transform="translate(91,111)"/>
<path d="M0 0 C4.95 0 9.9 0 15 0 C15 0.33 15 0.66 15 1 C10.05 1 5.1 1 0 1 C0 0.67 0 0.34 0 0 Z " fill="#076C4A" transform="translate(205,85)"/>
<path d="M0 0 C4.95 0 9.9 0 15 0 C15 0.33 15 0.66 15 1 C10.05 1 5.1 1 0 1 C0 0.67 0 0.34 0 0 Z " fill="#000000" transform="translate(165,29)"/>
<path d="M0 0 C4.62 0 9.24 0 14 0 C14 0.33 14 0.66 14 1 C9.38 1 4.76 1 0 1 C0 0.67 0 0.34 0 0 Z " fill="#19654C" transform="translate(146,111)"/>
<path d="M0 0 C0.33 0 0.66 0 1 0 C1 2.97 1 5.94 1 9 C0.34 8.67 -0.32 8.34 -1 8 C-0.67 6.35 -0.34 4.7 0 3 C-0.66 2.67 -1.32 2.34 -2 2 C-1.34 1.34 -0.68 0.68 0 0 Z " fill="#076E4A" transform="translate(67,98)"/>
<path d="M0 0 C4.62 0 9.24 0 14 0 C14 0.33 14 0.66 14 1 C9.38 1 4.76 1 0 1 C0 0.67 0 0.34 0 0 Z " fill="#096C48" transform="translate(126,85)"/>
<path d="M0 0 C4.62 0 9.24 0 14 0 C14 0.33 14 0.66 14 1 C9.38 1 4.76 1 0 1 C0 0.67 0 0.34 0 0 Z " fill="#040605" transform="translate(168,81)"/>
<path d="M0 0 C4.62 0 9.24 0 14 0 C14 0.33 14 0.66 14 1 C9.38 1 4.76 1 0 1 C0 0.67 0 0.34 0 0 Z " fill="#020401" transform="translate(43,81)"/>
<path d="M0 0 C2.475 0.495 2.475 0.495 5 1 C5 1.99 5 2.98 5 4 C3.35 4 1.7 4 0 4 C0 2.68 0 1.36 0 0 Z M1 1 C1 1.66 1 2.32 1 3 C1.99 3 2.98 3 4 3 C4 2.34 4 1.68 4 1 C3.01 1 2.02 1 1 1 Z " fill="#096E4A" transform="translate(56,92)"/>
<path d="M0 0 C4.29 0 8.58 0 13 0 C13 0.33 13 0.66 13 1 C8.71 1 4.42 1 0 1 C0 0.67 0 0.34 0 0 Z " fill="#096A47" transform="translate(50,85)"/>
<path d="M0 0 C4.29 0 8.58 0 13 0 C13 0.33 13 0.66 13 1 C8.71 1 4.42 1 0 1 C0 0.67 0 0.34 0 0 Z " fill="#196549" transform="translate(22,81)"/>
<path d="M0 0 C4.29 0 8.58 0 13 0 C13 0.33 13 0.66 13 1 C8.71 1 4.42 1 0 1 C0 0.67 0 0.34 0 0 Z " fill="#010302" transform="translate(1,81)"/>
<path d="M0 0 C2.31 0 4.62 0 7 0 C7 0.33 7 0.66 7 1 C5.02 1 3.04 1 1 1 C1 2.65 1 4.3 1 6 C0.67 6 0.34 6 0 6 C0 4.02 0 2.04 0 0 Z " fill="#0F6A4A" transform="translate(132,103)"/>
<path d="M0 0 C1.65 0 3.3 0 5 0 C5 1.32 5 2.64 5 4 C3.35 4 1.7 4 0 4 C1.32 3.67 2.64 3.34 4 3 C4 2.34 4 1.68 4 1 C2.68 0.67 1.36 0.34 0 0 Z " fill="#087049" transform="translate(198,96)"/>
<path d="M0 0 C3.96 0 7.92 0 12 0 C12 0.33 12 0.66 12 1 C8.04 1 4.08 1 0 1 C0 0.67 0 0.34 0 0 Z " fill="#050302" transform="translate(136,81)"/>
<path d="M0 0 C3.96 0 7.92 0 12 0 C12 0.33 12 0.66 12 1 C8.04 1 4.08 1 0 1 C0 0.67 0 0.34 0 0 Z " fill="#020000" transform="translate(117,81)"/>
<path d="M0 0 C3.96 0 7.92 0 12 0 C12 0.33 12 0.66 12 1 C8.04 1 4.08 1 0 1 C0 0.67 0 0.34 0 0 Z " fill="#050201" transform="translate(100,81)"/>
<path d="M0 0 C3.96 0 7.92 0 12 0 C12 0.33 12 0.66 12 1 C8.04 1 4.08 1 0 1 C0 0.67 0 0.34 0 0 Z " fill="#050201" transform="translate(72,81)"/>
<path d="M0 0 C3.96 0 7.92 0 12 0 C12 0.33 12 0.66 12 1 C8.04 1 4.08 1 0 1 C0 0.67 0 0.34 0 0 Z " fill="#000000" transform="translate(136,29)"/>
<path d="M0 0 C3.96 0 7.92 0 12 0 C12 0.33 12 0.66 12 1 C8.04 1 4.08 1 0 1 C0 0.67 0 0.34 0 0 Z " fill="#000000" transform="translate(117,29)"/>
<path d="M0 0 C2.64 0 5.28 0 8 0 C7.67 0.99 7.34 1.98 7 3 C7 2.34 7 1.68 7 1 C4.69 1.33 2.38 1.66 0 2 C0 1.34 0 0.68 0 0 Z " fill="#086E4A" transform="translate(33,106)"/>
<path d="M0 0 C0.33 0 0.66 0 1 0 C1 3.3 1 6.6 1 10 C0.67 10 0.34 10 0 10 C-0.19412181 8.52168779 -0.38012131 7.04230684 -0.5625 5.5625 C-0.66691406 4.73878906 -0.77132812 3.91507812 -0.87890625 3.06640625 C-0.91886719 2.38449219 -0.95882812 1.70257813 -1 1 C-0.67 0.67 -0.34 0.34 0 0 Z " fill="#0A6D4A" transform="translate(143,99)"/>
<path d="M0 0 C0.33 0 0.66 0 1 0 C1 2.64 1 5.28 1 8 C-1 5 -1 5 -0.625 2.3125 C-0.41875 1.549375 -0.2125 0.78625 0 0 Z " fill="#056F4A" transform="translate(181,93)"/>
<path d="M0 0 C0.33 0 0.66 0 1 0 C1 3.63 1 7.26 1 11 C0.67 11 0.34 11 0 11 C0 7.37 0 3.74 0 0 Z " fill="#000000" transform="translate(222,69)"/>
<path d="M0 0 C0.33 0 0.66 0 1 0 C1 3.63 1 7.26 1 11 C0.67 11 0.34 11 0 11 C0 7.37 0 3.74 0 0 Z " fill="#000000" transform="translate(150,68)"/>
<path d="M0 0 C0.66 0.33 1.32 0.66 2 1 C1.34 2.98 0.68 4.96 0 7 C-0.33 7 -0.66 7 -1 7 C-1.04254356 5.00045254 -1.04080783 2.99958364 -1 1 C-0.67 0.67 -0.34 0.34 0 0 Z " fill="#096D4A" transform="translate(76,102)"/>
<path d="M0 0 C0.33 0 0.66 0 1 0 C1 3.3 1 6.6 1 10 C0.67 10 0.34 10 0 10 C0 6.7 0 3.4 0 0 Z " fill="#000000" transform="translate(113,43)"/>
<path d="M0 0 C0.33 0 0.66 0 1 0 C1 3.3 1 6.6 1 10 C0.67 10 0.34 10 0 10 C0 6.7 0 3.4 0 0 Z " fill="#000000" transform="translate(222,32)"/>
<path d="M0 0 C0 1.98 0 3.96 0 6 C-0.33 4.68 -0.66 3.36 -1 2 C-2.32 1.67 -3.64 1.34 -5 1 C-1.125 0 -1.125 0 0 0 Z " fill="#000000" transform="translate(186,3)"/>
<path d="M0 0 C0.33 0 0.66 0 1 0 C1 1.98 1 3.96 1 6 C0.34 5.67 -0.32 5.34 -1 5 C-0.67 3.35 -0.34 1.7 0 0 Z " fill="#076F4A" transform="translate(18,103)"/>
<path d="M0 0 C1.0625 1.8125 1.0625 1.8125 2 4 C1.67 4.99 1.34 5.98 1 7 C0.67 7 0.34 7 0 7 C0 4.69 0 2.38 0 0 Z " fill="#086C48" transform="translate(75,87)"/>
<path d="M0 0 C0.33 0.99 0.66 1.98 1 3 C1.99 3.33 2.98 3.66 4 4 C2.68 4.33 1.36 4.66 0 5 C0 3.35 0 1.7 0 0 Z " fill="#000000" transform="translate(203,115)"/>
<path d="M0 0 C0.33 0.66 0.66 1.32 1 2 C2.65 2 4.3 2 6 2 C6 2.33 6 2.66 6 3 C4.02 3 2.04 3 0 3 C0 2.01 0 1.02 0 0 Z " fill="#086F4A" transform="translate(190,101)"/>
<path d="M0 0 C0.33 0 0.66 0 1 0 C1 2.64 1 5.28 1 8 C0.67 8 0.34 8 0 8 C0 5.36 0 2.72 0 0 Z " fill="#000000" transform="translate(220,51)"/>
<path d="M0 0 C-1 1 -1 1 -4.0625 1.0625 C-5.5165625 1.0315625 -5.5165625 1.0315625 -7 1 C-7 0.67 -7 0.34 -7 0 C-2.25 -1.125 -2.25 -1.125 0 0 Z " fill="#000000" transform="translate(223,16)"/>
<path d="M0 0 C2.64 0 5.28 0 8 0 C8 0.33 8 0.66 8 1 C5.36 1 2.72 1 0 1 C0 0.67 0 0.34 0 0 Z " fill="#000000" transform="translate(220,9)"/>
<path d="M0 0 C2.31 0.33 4.62 0.66 7 1 C7 1.33 7 1.66 7 2 C4.69 2 2.38 2 0 2 C0 1.34 0 0.68 0 0 Z " fill="#000000" transform="translate(162,7)"/>
<path d="M0 0 C2.31 0 4.62 0 7 0 C7 0.33 7 0.66 7 1 C4.69 1 2.38 1 0 1 C0 0.67 0 0.34 0 0 Z " fill="#1B644A" transform="translate(190,111)"/>
<path d="M0 0 C0.99 0.495 0.99 0.495 2 1 C1.67 2.65 1.34 4.3 1 6 C0.67 6 0.34 6 0 6 C0 4.02 0 2.04 0 0 Z " fill="#066F4A" transform="translate(56,103)"/>
<path d="M0 0 C0.66 1.32 1.32 2.64 2 4 C1.01 4 0.02 4 -1 4 C-0.67 2.68 -0.34 1.36 0 0 Z " fill="#086F48" transform="translate(172,96)"/>
<path d="M0 0 C0.33 0 0.66 0 1 0 C1 2.31 1 4.62 1 7 C0.67 7 0.34 7 0 7 C0 4.69 0 2.38 0 0 Z " fill="#000000" transform="translate(238,92)"/>
<path d="M0 0 C2.31 0 4.62 0 7 0 C7 0.33 7 0.66 7 1 C4.69 1 2.38 1 0 1 C0 0.67 0 0.34 0 0 Z " fill="#076B4A" transform="translate(169,85)"/>
<path d="M0 0 C0 0.99 0 1.98 0 3 C-0.99 3 -1.98 3 -3 3 C-2.01 2.01 -1.02 1.02 0 0 Z " fill="#000000" transform="translate(247,56)"/>
<path d="M0 0 C1.65 0 3.3 0 5 0 C4.01 1.485 4.01 1.485 3 3 C3 2.34 3 1.68 3 1 C2.01 0.67 1.02 0.34 0 0 Z " fill="#000000" transform="translate(246,51)"/>
<path d="M0 0 C0.33 0 0.66 0 1 0 C1.33 1.98 1.66 3.96 2 6 C1.34 6 0.68 6 0 6 C0 4.02 0 2.04 0 0 Z " fill="#000000" transform="translate(14,30)"/>
<path d="M0 0 C2.31 0 4.62 0 7 0 C7 0.33 7 0.66 7 1 C4.69 1 2.38 1 0 1 C0 0.67 0 0.34 0 0 Z " fill="#000000" transform="translate(173,5)"/>
<path d="M0 0 C0.33 0 0.66 0 1 0 C1 1.98 1 3.96 1 6 C0.34 5.67 -0.32 5.34 -1 5 C-0.67 3.35 -0.34 1.7 0 0 Z " fill="#000000" transform="translate(192,1)"/>
<path d="M0 0 C0.33 0 0.66 0 1 0 C1 1.98 1 3.96 1 6 C0.67 6 0.34 6 0 6 C0 4.02 0 2.04 0 0 Z " fill="#106A4A" transform="translate(189,95)"/>
<path d="M0 0 C0.33 0.99 0.66 1.98 1 3 C0.01 3.495 0.01 3.495 -1 4 C-0.67 2.68 -0.34 1.36 0 0 Z " fill="#076E4B" transform="translate(13,95)"/>
<path d="M0 0 C1.65 0 3.3 0 5 0 C4.67 0.66 4.34 1.32 4 2 C2.68 1.34 1.36 0.68 0 0 Z " fill="#0B6E4C" transform="translate(191,92)"/>
<path d="M0 0 C1.98 0 3.96 0 6 0 C6 0.33 6 0.66 6 1 C4.02 1 2.04 1 0 1 C0 0.67 0 0.34 0 0 Z " fill="#0D6D4A" transform="translate(82,85)"/>
<path d="M0 0 C1.98 0 3.96 0 6 0 C6 0.33 6 0.66 6 1 C4.02 1 2.04 1 0 1 C0 0.67 0 0.34 0 0 Z " fill="#14684A" transform="translate(34,85)"/>
<path d="M0 0 C1.98 0 3.96 0 6 0 C6 0.33 6 0.66 6 1 C4.02 1 2.04 1 0 1 C0 0.67 0 0.34 0 0 Z " fill="#0D6B4A" transform="translate(19,85)"/>
<path d="M0 0 C1.98 0 3.96 0 6 0 C6 0.33 6 0.66 6 1 C4.02 1 2.04 1 0 1 C0 0.67 0 0.34 0 0 Z " fill="#076C4A" transform="translate(1,85)"/>
<path d="M0 0 C0.33 0.99 0.66 1.98 1 3 C0.01 2.67 -0.98 2.34 -2 2 C-1.34 1.34 -0.68 0.68 0 0 Z " fill="#102F23" transform="translate(34,52)"/>
<path d="M0 0 C1.98 0 3.96 0 6 0 C6 0.33 6 0.66 6 1 C4.02 1 2.04 1 0 1 C0 0.67 0 0.34 0 0 Z " fill="#000000" transform="translate(246,45)"/>
<path d="M0 0 C0.99 1.485 0.99 1.485 2 3 C1.67 3.66 1.34 4.32 1 5 C0.67 3.35 0.34 1.7 0 0 Z " fill="#000000" transform="translate(235,32)"/>
<path d="M0 0 C0.33 0 0.66 0 1 0 C1 1.98 1 3.96 1 6 C0.67 6 0.34 6 0 6 C0 4.02 0 2.04 0 0 Z " fill="#000000" transform="translate(231,13)"/>
<path d="M0 0 C1.98 0.99 1.98 0.99 4 2 C2.68 1.67 1.36 1.34 0 1 C0 0.67 0 0.34 0 0 Z " fill="#0E281D" transform="translate(197,110)"/>
<path d="M0 0 C1.65 0 3.3 0 5 0 C5 0.33 5 0.66 5 1 C3.35 1 1.7 1 0 1 C0 0.67 0 0.34 0 0 Z " fill="#1A6548" transform="translate(178,111)"/>
<path d="M0 0 C1.65 0 3.3 0 5 0 C5 0.33 5 0.66 5 1 C3.35 1 1.7 1 0 1 C0 0.67 0 0.34 0 0 Z " fill="#1A644A" transform="translate(126,111)"/>
<path d="M0 0 C1.65 0 3.3 0 5 0 C5 0.33 5 0.66 5 1 C3.35 1 1.7 1 0 1 C0 0.67 0 0.34 0 0 Z " fill="#19664A" transform="translate(113,111)"/>
<path d="M0 0 C1.65 0 3.3 0 5 0 C5 0.33 5 0.66 5 1 C3.35 1 1.7 1 0 1 C0 0.67 0 0.34 0 0 Z " fill="#19654A" transform="translate(83,111)"/>
<path d="M0 0 C1.65 0 3.3 0 5 0 C5 0.33 5 0.66 5 1 C3.35 1 1.7 1 0 1 C0 0.67 0 0.34 0 0 Z " fill="#14684A" transform="translate(69,111)"/>
<path d="M0 0 C1.65 0 3.3 0 5 0 C5 0.33 5 0.66 5 1 C3.35 1 1.7 1 0 1 C0 0.67 0 0.34 0 0 Z " fill="#19664C" transform="translate(43,111)"/>
<path d="M0 0 C1.65 0 3.3 0 5 0 C5 0.33 5 0.66 5 1 C3.35 1 1.7 1 0 1 C0 0.67 0 0.34 0 0 Z " fill="#19664C" transform="translate(26,111)"/>
<path d="M0 0 C1.65 0 3.3 0 5 0 C5 0.33 5 0.66 5 1 C3.35 1 1.7 1 0 1 C0 0.67 0 0.34 0 0 Z " fill="#19664A" transform="translate(20,111)"/>
<path d="M0 0 C1.65 0 3.3 0 5 0 C5 0.33 5 0.66 5 1 C3.35 1 1.7 1 0 1 C0 0.67 0 0.34 0 0 Z " fill="#1A654C" transform="translate(1,111)"/>
<path d="M0 0 C0.33 1.32 0.66 2.64 1 4 C0.34 3.01 -0.32 2.02 -1 1 C-0.67 0.67 -0.34 0.34 0 0 Z " fill="#036D47" transform="translate(67,87)"/>
<path d="M0 0 C1.65 0 3.3 0 5 0 C5 0.33 5 0.66 5 1 C3.35 1 1.7 1 0 1 C0 0.67 0 0.34 0 0 Z " fill="#0F694B" transform="translate(145,85)"/>
<path d="M0 0 C1.65 0 3.3 0 5 0 C5 0.33 5 0.66 5 1 C3.35 1 1.7 1 0 1 C0 0.67 0 0.34 0 0 Z " fill="#036D46" transform="translate(69,85)"/>
<path d="M0 0 C0.33 0.66 0.66 1.32 1 2 C0.34 2.66 -0.32 3.32 -1 4 C-0.67 2.68 -0.34 1.36 0 0 Z " fill="#000000" transform="translate(165,50)"/>
<path d="M0 0 C0.33 0.66 0.66 1.32 1 2 C-0.32 1.67 -1.64 1.34 -3 1 C-2.01 0.67 -1.02 0.34 0 0 Z " fill="#000000" transform="translate(96,50)"/>
<path d="M0 0 C0.33 0 0.66 0 1 0 C1 1.65 1 3.3 1 5 C0.67 5 0.34 5 0 5 C0 3.35 0 1.7 0 0 Z " fill="#000000" transform="translate(97,45)"/>
<path d="M0 0 C0.66 0.66 1.32 1.32 2 2 C0.68 1.67 -0.64 1.34 -2 1 C-1.34 0.67 -0.68 0.34 0 0 Z " fill="#000000" transform="translate(44,44)"/>
<path d="M0 0 C1.65 0 3.3 0 5 0 C5 0.33 5 0.66 5 1 C3.35 1 1.7 1 0 1 C0 0.67 0 0.34 0 0 Z " fill="#000000" transform="translate(26,39)"/>
<path d="M0 0 C0.33 0 0.66 0 1 0 C1 1.65 1 3.3 1 5 C0.67 5 0.34 5 0 5 C0 3.35 0 1.7 0 0 Z " fill="#000000" transform="translate(58,37)"/>
<path d="M0 0 C1.65 0 3.3 0 5 0 C5 0.33 5 0.66 5 1 C3.35 1 1.7 1 0 1 C0 0.67 0 0.34 0 0 Z " fill="#000000" transform="translate(4,24)"/>
<path d="M0 0 C1.32 0.33 2.64 0.66 4 1 C2.68 1.33 1.36 1.66 0 2 C0 1.34 0 0.68 0 0 Z " fill="#000000" transform="translate(206,13)"/>
<path d="M0 0 C1.32 0 2.64 0 4 0 C3.67 0.66 3.34 1.32 3 2 C2.01 1.34 1.02 0.68 0 0 Z " fill="#000000" transform="translate(198,10)"/>
<path d="M0 0 C1 4 1 4 1 4 Z " fill="#000000" transform="translate(197,116)"/>
<path d="M0 0 C4 1 4 1 4 1 Z " fill="#1A6648" transform="translate(162,111)"/>
<path d="M0 0 C4 1 4 1 4 1 Z " fill="#19654A" transform="translate(63,111)"/>
<path d="M0 0 C4 1 4 1 4 1 Z " fill="#1A654A" transform="translate(50,111)"/>
<path d="M0 0 C4 1 4 1 4 1 Z " fill="#1A654A" transform="translate(11,111)"/>
<path d="M0 0 C4 1 4 1 4 1 Z " fill="#000000" transform="translate(241,109)"/>
<path d="M0 0 C0.99 0.495 0.99 0.495 2 1 C1.67 1.66 1.34 2.32 1 3 C0.67 2.01 0.34 1.02 0 0 Z " fill="#0A6D4A" transform="translate(80,107)"/>
<path d="M0 0 C1 4 1 4 1 4 Z " fill="#046D48" transform="translate(222,105)"/>
<path d="M0 0 C1 4 1 4 1 4 Z " fill="#11694A" transform="translate(107,105)"/>
<path d="M0 0 C0.99 0.495 0.99 0.495 2 1 C1.67 1.66 1.34 2.32 1 3 C0.67 2.01 0.34 1.02 0 0 Z " fill="#000000" transform="translate(242,101)"/>
<path d="M0 0 C0.99 0.495 0.99 0.495 2 1 C1.67 1.66 1.34 2.32 1 3 C0.67 2.01 0.34 1.02 0 0 Z " fill="#076E4A" transform="translate(83,99)"/>
<path d="M0 0 C1 4 1 4 1 4 Z " fill="#0A6D4A" transform="translate(106,96)"/>
<path d="M0 0 C0 3 0 3 0 3 Z " fill="#05704A" transform="translate(82,95)"/>
<path d="M0 0 C1 4 1 4 1 4 Z " fill="#166646" transform="translate(221,87)"/>
<path d="M0 0 C1 4 1 4 1 4 Z " fill="#000000" transform="translate(254,88)"/>
<path d="M0 0 C0 3 0 3 0 3 Z " fill="#02744B" transform="translate(143,87)"/>
<path d="M0 0 C4 1 4 1 4 1 Z " fill="#066947" transform="translate(188,85)"/>
<path d="M0 0 C0.99 0.495 0.99 0.495 2 1 C1.67 1.66 1.34 2.32 1 3 C0.67 2.01 0.34 1.02 0 0 Z " fill="#000000" transform="translate(163,75)"/>
<path d="M0 0 C0.99 0.495 0.99 0.495 2 1 C1.67 1.66 1.34 2.32 1 3 C0.67 2.01 0.34 1.02 0 0 Z " fill="#000000" transform="translate(174,66)"/>
<path d="M0 0 C0 3 0 3 0 3 Z " fill="#000000" transform="translate(236,66)"/>
<path d="M0 0 C0.99 0.495 0.99 0.495 2 1 C1.67 1.66 1.34 2.32 1 3 C0.67 2.01 0.34 1.02 0 0 Z " fill="#000000" transform="translate(171,62)"/>
<path d="M0 0 C4 1 4 1 4 1 Z " fill="#000000" transform="translate(242,52)"/>
<path d="M0 0 C0.66 0 1.32 0 2 0 C1.67 0.99 1.34 1.98 1 3 C0.67 2.01 0.34 1.02 0 0 Z " fill="#000000" transform="translate(237,46)"/>
<path d="M0 0 C4 1 4 1 4 1 Z " fill="#000000" transform="translate(252,44)"/>
<path d="M0 0 C0 3 0 3 0 3 Z " fill="#000000" transform="translate(171,43)"/>
<path d="M0 0 C0 3 0 3 0 3 Z " fill="#000000" transform="translate(153,43)"/>
<path d="M0 0 C0.33 0.99 0.66 1.98 1 3 C0.34 2.67 -0.32 2.34 -1 2 C-0.67 1.34 -0.34 0.68 0 0 Z " fill="#000000" transform="translate(41,37)"/>
<path d="M0 0 C0 3 0 3 0 3 Z " fill="#000000" transform="translate(158,37)"/>
<path d="M0 0 C0 3 0 3 0 3 Z " fill="#000000" transform="translate(177,36)"/>
<path d="M0 0 C4 1 4 1 4 1 Z " fill="#000000" transform="translate(200,17)"/>
<path d="M0 0 C4 1 4 1 4 1 Z " fill="#000000" transform="translate(212,15)"/>
<path d="M0 0 C1 4 1 4 1 4 Z " fill="#000000" transform="translate(158,12)"/>
<path d="M0 0 C1 4 1 4 1 4 Z " fill="#000000" transform="translate(152,11)"/>
<path d="M0 0 C4 1 4 1 4 1 Z " fill="#000000" transform="translate(213,9)"/>
<path d="M0 0 C4 1 4 1 4 1 Z " fill="#000000" transform="translate(160,1)"/>
<path d="M0 0 C3 1 3 1 3 1 Z " fill="#000000" transform="translate(211,117)"/>
<path d="M0 0 C0.33 0.66 0.66 1.32 1 2 C0.34 1.67 -0.32 1.34 -1 1 C-0.67 0.67 -0.34 0.34 0 0 Z " fill="#000000" transform="translate(217,113)"/>
<path d="M0 0 C0.66 0.66 1.32 1.32 2 2 C1.34 2 0.68 2 0 2 C0 1.34 0 0.68 0 0 Z " fill="#096E49" transform="translate(184,107)"/>
<path d="" fill="#000000" transform="translate(0,0)"/>
<path d="" fill="#000000" transform="translate(0,0)"/>
<path d="" fill="#000000" transform="translate(0,0)"/>
<path d="" fill="#096D4C" transform="translate(0,0)"/>
<path d="" fill="#000000" transform="translate(0,0)"/>
<path d="" fill="#116A4C" transform="translate(0,0)"/>
<path d="" fill="#04704A" transform="translate(0,0)"/>
<path d="" fill="#0A6B4B" transform="translate(0,0)"/>
<path d="" fill="#0D6B4A" transform="translate(0,0)"/>
<path d="" fill="#0B6D48" transform="translate(0,0)"/>
<path d="" fill="#096D4A" transform="translate(0,0)"/>
<path d="" fill="#0F684B" transform="translate(0,0)"/>
<path d="" fill="#0E6B4C" transform="translate(0,0)"/>
<path d="" fill="#0B6C4A" transform="translate(0,0)"/>
<path d="" fill="#026E4A" transform="translate(0,0)"/>
<path d="" fill="#0D6747" transform="translate(0,0)"/>
<path d="M0 0 C0.33 0.66 0.66 1.32 1 2 C0.34 1.67 -0.32 1.34 -1 1 C-0.67 0.67 -0.34 0.34 0 0 Z " fill="#000000" transform="translate(245,86)"/>
<path d="M0 0 C3 1 3 1 3 1 Z " fill="#066E4B" transform="translate(195,85)"/>
<path d="M0 0 C3 1 3 1 3 1 Z " fill="#18684D" transform="translate(192,84)"/>
<path d="M0 0 C0.33 0.66 0.66 1.32 1 2 C0.34 1.67 -0.32 1.34 -1 1 C-0.67 0.67 -0.34 0.34 0 0 Z " fill="#000000" transform="translate(154,63)"/>
<path d="M0 0 C0.66 0.66 1.32 1.32 2 2 C1.34 2 0.68 2 0 2 C0 1.34 0 0.68 0 0 Z " fill="#124332" transform="translate(22,53)"/>
<path d="" fill="#070102" transform="translate(0,0)"/>
<path d="M0 0 C0.66 0.66 1.32 1.32 2 2 C1.34 2 0.68 2 0 2 C0 1.34 0 0.68 0 0 Z " fill="#000000" transform="translate(244,45)"/>
<path d="" fill="#000000" transform="translate(0,0)"/>
<path d="M0 0 C3 1 3 1 3 1 Z " fill="#000000" transform="translate(35,41)"/>
<path d="M0 0 C0.66 0.66 1.32 1.32 2 2 C1.34 2 0.68 2 0 2 C0 1.34 0 0.68 0 0 Z " fill="#000000" transform="translate(238,39)"/>
<path d="M0 0 C3 1 3 1 3 1 Z " fill="#000000" transform="translate(51,31)"/>
<path d="M0 0 C3 1 3 1 3 1 Z " fill="#000000" transform="translate(99,30)"/>
<path d="" fill="#000000" transform="translate(0,0)"/>
<path d="" fill="#000000" transform="translate(0,0)"/>
<path d="" fill="#000000" transform="translate(0,0)"/>
<path d="M0 0 C3 1 3 1 3 1 Z " fill="#000000" transform="translate(197,16)"/>
<path d="M0 0 C3 1 3 1 3 1 Z " fill="#000000" transform="translate(192,13)"/>
<path d="M0 0 C3 1 3 1 3 1 Z " fill="#000000" transform="translate(189,12)"/>
<path d="M0 0 C3 1 3 1 3 1 Z " fill="#000000" transform="translate(217,10)"/>
<path d="M0 0 C3 1 3 1 3 1 Z " fill="#000000" transform="translate(193,7)"/>
<path d="M0 0 C3 1 3 1 3 1 Z " fill="#000000" transform="translate(206,6)"/>
<path d="M0 0 C3 1 3 1 3 1 Z " fill="#000000" transform="translate(164,2)"/>
<path d="M0 0 C3 1 3 1 3 1 Z " fill="#000000" transform="translate(167,1)"/>
<path d="M0 0 C2 1 2 1 2 1 Z " fill="#000000" transform="translate(216,121)"/>
<path d="" fill="#000100" transform="translate(0,0)"/>
<path d="M0 0 C2 1 2 1 2 1 Z " fill="#000000" transform="translate(209,118)"/>
<path d="" fill="#000002" transform="translate(0,0)"/>
<path d="" fill="#000002" transform="translate(0,0)"/>
<path d="" fill="#000000" transform="translate(0,0)"/>
<path d="" fill="#000000" transform="translate(0,0)"/>
<path d="M0 0 C2 1 2 1 2 1 Z " fill="#076F4C" transform="translate(188,110)"/>
<path d="M0 0 C2 1 2 1 2 1 Z " fill="#076F4A" transform="translate(186,109)"/>
<path d="" fill="#066F4A" transform="translate(0,0)"/>
<path d="M0 0 C2 1 2 1 2 1 Z " fill="#000000" transform="translate(245,108)"/>
<path d="M0 0 C2 1 2 1 2 1 Z " fill="#08704B" transform="translate(200,108)"/>
<path d="" fill="#08704B" transform="translate(0,0)"/>
<path d="" fill="#096E4A" transform="translate(0,0)"/>
<path d="" fill="#0E6D4B" transform="translate(0,0)"/>
<path d="" fill="#076F4A" transform="translate(0,0)"/>
<path d="" fill="#076F4A" transform="translate(0,0)"/>
<path d="" fill="#000000" transform="translate(0,0)"/>
<path d="" fill="#096F4D" transform="translate(0,0)"/>
<path d="M0 0 C2 1 2 1 2 1 Z " fill="#096D4A" transform="translate(139,102)"/>
<path d="" fill="#11694C" transform="translate(0,0)"/>
<path d="" fill="#000000" transform="translate(0,0)"/>
<path d="" fill="#000000" transform="translate(0,0)"/>
<path d="" fill="#0A7049" transform="translate(0,0)"/>
<path d="" fill="#076F4A" transform="translate(0,0)"/>
<path d="" fill="#066F4A" transform="translate(0,0)"/>
<path d="" fill="#05704A" transform="translate(0,0)"/>
<path d="" fill="#086E4A" transform="translate(0,0)"/>
<path d="" fill="#076F49" transform="translate(0,0)"/>
<path d="" fill="#0B6A4B" transform="translate(0,0)"/>
<path d="" fill="#000000" transform="translate(0,0)"/>
<path d="" fill="#046F4C" transform="translate(0,0)"/>
<path d="" fill="#096E47" transform="translate(0,0)"/>
<path d="" fill="#0B6B4B" transform="translate(0,0)"/>
<path d="" fill="#077046" transform="translate(0,0)"/>
<path d="" fill="#00724A" transform="translate(0,0)"/>
<path d="" fill="#0C6D4A" transform="translate(0,0)"/>
<path d="M0 0 C2 1 2 1 2 1 Z " fill="#000000" transform="translate(242,88)"/>
<path d="" fill="#056847" transform="translate(0,0)"/>
<path d="" fill="#000000" transform="translate(0,0)"/>
<path d="M0 0 C2 1 2 1 2 1 Z " fill="#09714B" transform="translate(198,86)"/>
<path d="M0 0 C2 1 2 1 2 1 Z " fill="#076F4A" transform="translate(88,86)"/>
<path d="M0 0 C2 1 2 1 2 1 Z " fill="#036643" transform="translate(63,86)"/>
<path d="M0 0 C2 1 2 1 2 1 Z " fill="#000000" transform="translate(250,83)"/>
<path d="" fill="#000000" transform="translate(0,0)"/>
<path d="" fill="#000000" transform="translate(0,0)"/>
<path d="" fill="#000000" transform="translate(0,0)"/>
<path d="" fill="#000000" transform="translate(0,0)"/>
<path d="" fill="#000000" transform="translate(0,0)"/>
<path d="" fill="#000000" transform="translate(0,0)"/>
<path d="" fill="#000000" transform="translate(0,0)"/>
<path d="" fill="#000000" transform="translate(0,0)"/>
<path d="" fill="#000000" transform="translate(0,0)"/>
<path d="" fill="#000000" transform="translate(0,0)"/>
<path d="" fill="#000000" transform="translate(0,0)"/>
<path d="" fill="#000000" transform="translate(0,0)"/>
<path d="" fill="#000000" transform="translate(0,0)"/>
<path d="" fill="#000000" transform="translate(0,0)"/>
<path d="" fill="#000000" transform="translate(0,0)"/>
<path d="" fill="#000000" transform="translate(0,0)"/>
<path d="M0 0 C2 1 2 1 2 1 Z " fill="#000000" transform="translate(245,65)"/>
<path d="" fill="#000000" transform="translate(0,0)"/>
<path d="M0 0 C2 1 2 1 2 1 Z " fill="#000000" transform="translate(240,62)"/>
<path d="M0 0 C2 1 2 1 2 1 Z " fill="#000000" transform="translate(105,62)"/>
<path d="" fill="#000000" transform="translate(0,0)"/>
<path d="" fill="#000000" transform="translate(0,0)"/>
<path d="" fill="#000000" transform="translate(0,0)"/>
<path d="" fill="#000000" transform="translate(0,0)"/>
<path d="" fill="#000000" transform="translate(0,0)"/>
<path d="" fill="#000000" transform="translate(0,0)"/>
<path d="" fill="#000000" transform="translate(0,0)"/>
<path d="" fill="#000000" transform="translate(0,0)"/>
<path d="" fill="#070001" transform="translate(0,0)"/>
<path d="M0 0 C2 1 2 1 2 1 Z " fill="#000000" transform="translate(53,46)"/>
<path d="M0 0 C2 1 2 1 2 1 Z " fill="#000000" transform="translate(39,46)"/>
<path d="M0 0 C2 1 2 1 2 1 Z " fill="#000000" transform="translate(95,44)"/>
<path d="M0 0 C2 1 2 1 2 1 Z " fill="#000000" transform="translate(17,44)"/>
<path d="" fill="#000000" transform="translate(0,0)"/>
<path d="" fill="#000000" transform="translate(0,0)"/>
<path d="M0 0 C2 1 2 1 2 1 Z " fill="#000000" transform="translate(32,41)"/>
<path d="M0 0 C2 1 2 1 2 1 Z " fill="#000000" transform="translate(38,40)"/>
<path d="M0 0 C2 1 2 1 2 1 Z " fill="#000000" transform="translate(24,40)"/>
<path d="M0 0 C2 1 2 1 2 1 Z " fill="#000000" transform="translate(21,40)"/>
<path d="" fill="#000000" transform="translate(0,0)"/>
<path d="" fill="#000000" transform="translate(0,0)"/>
<path d="" fill="#000000" transform="translate(0,0)"/>
<path d="M0 0 C2 1 2 1 2 1 Z " fill="#000000" transform="translate(17,37)"/>
<path d="" fill="#000000" transform="translate(0,0)"/>
<path d="" fill="#000000" transform="translate(0,0)"/>
<path d="" fill="#000000" transform="translate(0,0)"/>
<path d="" fill="#000000" transform="translate(0,0)"/>
<path d="" fill="#000000" transform="translate(0,0)"/>
<path d="" fill="#000000" transform="translate(0,0)"/>
<path d="M0 0 C2 1 2 1 2 1 Z " fill="#000000" transform="translate(104,32)"/>
<path d="" fill="#000000" transform="translate(0,0)"/>
<path d="M0 0 C2 1 2 1 2 1 Z " fill="#000000" transform="translate(102,31)"/>
<path d="M0 0 C2 1 2 1 2 1 Z " fill="#000000" transform="translate(47,31)"/>
<path d="" fill="#000000" transform="translate(0,0)"/>
<path d="M0 0 C2 1 2 1 2 1 Z " fill="#000000" transform="translate(49,30)"/>
<path d="" fill="#000000" transform="translate(0,0)"/>
<path d="" fill="#000000" transform="translate(0,0)"/>
<path d="" fill="#000000" transform="translate(0,0)"/>
<path d="" fill="#000000" transform="translate(0,0)"/>
<path d="M0 0 C2 1 2 1 2 1 Z " fill="#000000" transform="translate(2,25)"/>
<path d="" fill="#000000" transform="translate(0,0)"/>
<path d="" fill="#000000" transform="translate(0,0)"/>
<path d="" fill="#000000" transform="translate(0,0)"/>
<path d="" fill="#000000" transform="translate(0,0)"/>
<path d="" fill="#000000" transform="translate(0,0)"/>
<path d="" fill="#000000" transform="translate(0,0)"/>
<path d="" fill="#000000" transform="translate(0,0)"/>
<path d="" fill="#000000" transform="translate(0,0)"/>
<path d="M0 0 C2 1 2 1 2 1 Z " fill="#000000" transform="translate(149,17)"/>
<path d="" fill="#000000" transform="translate(0,0)"/>
<path d="M0 0 C2 1 2 1 2 1 Z " fill="#000000" transform="translate(210,14)"/>
<path d="" fill="#000000" transform="translate(0,0)"/>
<path d="M0 0 C2 1 2 1 2 1 Z " fill="#000000" transform="translate(211,8)"/>
<path d="M0 0 C2 1 2 1 2 1 Z " fill="#000000" transform="translate(209,7)"/>
<path d="M0 0 C2 1 2 1 2 1 Z " fill="#000000" transform="translate(204,7)"/>
<path d="M0 0 C2 1 2 1 2 1 Z " fill="#000000" transform="translate(169,7)"/>
<path d="M0 0 C2 1 2 1 2 1 Z " fill="#000000" transform="translate(171,6)"/>
<path d="" fill="#000000" transform="translate(0,0)"/>
<path d="M0 0 C2 1 2 1 2 1 Z " fill="#000000" transform="translate(170,0)"/>
<path d="" fill="#000000" transform="translate(0,0)"/>
<path d="" fill="#000100" transform="translate(0,0)"/>
<path d="" fill="#000000" transform="translate(0,0)"/>
<path d="" fill="#000000" transform="translate(0,0)"/>
<path d="" fill="#000000" transform="translate(0,0)"/>
<path d="" fill="#000002" transform="translate(0,0)"/>
<path d="" fill="#000000" transform="translate(0,0)"/>
<path d="" fill="#000000" transform="translate(0,0)"/>
<path d="" fill="#000000" transform="translate(0,0)"/>
<path d="" fill="#000102" transform="translate(0,0)"/>
<path d="" fill="#000200" transform="translate(0,0)"/>
<path d="" fill="#000500" transform="translate(0,0)"/>
<path d="" fill="#0A6D4A" transform="translate(0,0)"/>
<path d="" fill="#05704A" transform="translate(0,0)"/>
<path d="" fill="#096E4A" transform="translate(0,0)"/>
<path d="" fill="#076F4C" transform="translate(0,0)"/>
<path d="" fill="#096E4A" transform="translate(0,0)"/>
<path d="" fill="#076F4C" transform="translate(0,0)"/>
<path d="" fill="#076F4C" transform="translate(0,0)"/>
<path d="" fill="#076F4A" transform="translate(0,0)"/>
<path d="" fill="#096E4A" transform="translate(0,0)"/>
<path d="" fill="#096E4A" transform="translate(0,0)"/>
<path d="" fill="#196249" transform="translate(0,0)"/>
<path d="" fill="#096E4C" transform="translate(0,0)"/>
<path d="" fill="#000000" transform="translate(0,0)"/>
<path d="" fill="#0C6D4A" transform="translate(0,0)"/>
<path d="" fill="#076F4C" transform="translate(0,0)"/>
<path d="" fill="#076F4A" transform="translate(0,0)"/>
<path d="" fill="#000000" transform="translate(0,0)"/>
<path d="" fill="#000000" transform="translate(0,0)"/>
<path d="" fill="#000000" transform="translate(0,0)"/>
<path d="" fill="#000000" transform="translate(0,0)"/>
<path d="" fill="#04714A" transform="translate(0,0)"/>
<path d="" fill="#096E4A" transform="translate(0,0)"/>
<path d="" fill="#05704A" transform="translate(0,0)"/>
<path d="" fill="#04714A" transform="translate(0,0)"/>
<path d="" fill="#076F4A" transform="translate(0,0)"/>
<path d="" fill="#04714A" transform="translate(0,0)"/>
<path d="" fill="#0A6D4A" transform="translate(0,0)"/>
<path d="" fill="#0A6D4A" transform="translate(0,0)"/>
<path d="" fill="#096E4A" transform="translate(0,0)"/>
<path d="" fill="#0D6D4D" transform="translate(0,0)"/>
<path d="" fill="#116A4A" transform="translate(0,0)"/>
<path d="" fill="#0D6C4A" transform="translate(0,0)"/>
<path d="" fill="#066E46" transform="translate(0,0)"/>
<path d="" fill="#126B4D" transform="translate(0,0)"/>
<path d="" fill="#136B4B" transform="translate(0,0)"/>
<path d="" fill="#17684D" transform="translate(0,0)"/>
<path d="" fill="#00754A" transform="translate(0,0)"/>
<path d="" fill="#08704B" transform="translate(0,0)"/>
<path d="" fill="#000000" transform="translate(0,0)"/>
<path d="" fill="#106C4B" transform="translate(0,0)"/>
<path d="" fill="#000000" transform="translate(0,0)"/>
<path d="" fill="#0F6D4B" transform="translate(0,0)"/>
<path d="" fill="#000000" transform="translate(0,0)"/>
<path d="" fill="#017348" transform="translate(0,0)"/>
<path d="" fill="#05704A" transform="translate(0,0)"/>
<path d="" fill="#000000" transform="translate(0,0)"/>
<path d="" fill="#087147" transform="translate(0,0)"/>
<path d="" fill="#04714A" transform="translate(0,0)"/>
<path d="" fill="#05704A" transform="translate(0,0)"/>
<path d="" fill="#077149" transform="translate(0,0)"/>
<path d="" fill="#05704A" transform="translate(0,0)"/>
<path d="" fill="#046F48" transform="translate(0,0)"/>
<path d="" fill="#005E37" transform="translate(0,0)"/>
<path d="" fill="#006641" transform="translate(0,0)"/>
<path d="" fill="#00764A" transform="translate(0,0)"/>
<path d="" fill="#006E46" transform="translate(0,0)"/>
<path d="" fill="#006B44" transform="translate(0,0)"/>
<path d="" fill="#0C6B48" transform="translate(0,0)"/>
<path d="" fill="#006744" transform="translate(0,0)"/>
<path d="" fill="#176246" transform="translate(0,0)"/>
<path d="" fill="#046242" transform="translate(0,0)"/>
<path d="" fill="#0D6849" transform="translate(0,0)"/>
<path d="" fill="#046E4B" transform="translate(0,0)"/>
<path d="" fill="#08724C" transform="translate(0,0)"/>
<path d="" fill="#076845" transform="translate(0,0)"/>
<path d="" fill="#076A46" transform="translate(0,0)"/>
<path d="" fill="#066E48" transform="translate(0,0)"/>
<path d="" fill="#217C5B" transform="translate(0,0)"/>
<path d="" fill="#066945" transform="translate(0,0)"/>
<path d="" fill="#116848" transform="translate(0,0)"/>
<path d="" fill="#02714A" transform="translate(0,0)"/>
<path d="" fill="#0A6A49" transform="translate(0,0)"/>
<path d="" fill="#046444" transform="translate(0,0)"/>
<path d="" fill="#000000" transform="translate(0,0)"/>
<path d="" fill="#000000" transform="translate(0,0)"/>
<path d="" fill="#000000" transform="translate(0,0)"/>
<path d="" fill="#000000" transform="translate(0,0)"/>
<path d="" fill="#000000" transform="translate(0,0)"/>
<path d="" fill="#000000" transform="translate(0,0)"/>
<path d="" fill="#000000" transform="translate(0,0)"/>
<path d="" fill="#000602" transform="translate(0,0)"/>
<path d="" fill="#191114" transform="translate(0,0)"/>
<path d="" fill="#060000" transform="translate(0,0)"/>
<path d="" fill="#000000" transform="translate(0,0)"/>
<path d="" fill="#000000" transform="translate(0,0)"/>
<path d="" fill="#020501" transform="translate(0,0)"/>
<path d="" fill="#000600" transform="translate(0,0)"/>
<path d="" fill="#191715" transform="translate(0,0)"/>
<path d="" fill="#0F6B4A" transform="translate(0,0)"/>
<path d="" fill="#000602" transform="translate(0,0)"/>
<path d="" fill="#020000" transform="translate(0,0)"/>
<path d="" fill="#020000" transform="translate(0,0)"/>
<path d="" fill="#020000" transform="translate(0,0)"/>
<path d="" fill="#000000" transform="translate(0,0)"/>
<path d="" fill="#010101" transform="translate(0,0)"/>
<path d="" fill="#000000" transform="translate(0,0)"/>
<path d="" fill="#000000" transform="translate(0,0)"/>
<path d="" fill="#000000" transform="translate(0,0)"/>
<path d="" fill="#000000" transform="translate(0,0)"/>
<path d="" fill="#000000" transform="translate(0,0)"/>
<path d="" fill="#000000" transform="translate(0,0)"/>
<path d="" fill="#000000" transform="translate(0,0)"/>
<path d="" fill="#000000" transform="translate(0,0)"/>
<path d="" fill="#000000" transform="translate(0,0)"/>
<path d="" fill="#000000" transform="translate(0,0)"/>
<path d="" fill="#000000" transform="translate(0,0)"/>
<path d="" fill="#000000" transform="translate(0,0)"/>
<path d="" fill="#000000" transform="translate(0,0)"/>
<path d="" fill="#000000" transform="translate(0,0)"/>
<path d="" fill="#000000" transform="translate(0,0)"/>
<path d="" fill="#000000" transform="translate(0,0)"/>
<path d="" fill="#000000" transform="translate(0,0)"/>
<path d="" fill="#000000" transform="translate(0,0)"/>
<path d="" fill="#000000" transform="translate(0,0)"/>
<path d="" fill="#000000" transform="translate(0,0)"/>
<path d="" fill="#000000" transform="translate(0,0)"/>
<path d="" fill="#000000" transform="translate(0,0)"/>
<path d="" fill="#000000" transform="translate(0,0)"/>
<path d="" fill="#000000" transform="translate(0,0)"/>
<path d="" fill="#000000" transform="translate(0,0)"/>
<path d="" fill="#000000" transform="translate(0,0)"/>
<path d="" fill="#000000" transform="translate(0,0)"/>
<path d="" fill="#000000" transform="translate(0,0)"/>
<path d="" fill="#000000" transform="translate(0,0)"/>
<path d="" fill="#000000" transform="translate(0,0)"/>
<path d="" fill="#000000" transform="translate(0,0)"/>
<path d="" fill="#000000" transform="translate(0,0)"/>
<path d="" fill="#000000" transform="translate(0,0)"/>
<path d="" fill="#000000" transform="translate(0,0)"/>
<path d="" fill="#000000" transform="translate(0,0)"/>
<path d="" fill="#000000" transform="translate(0,0)"/>
<path d="" fill="#000000" transform="translate(0,0)"/>
<path d="" fill="#000000" transform="translate(0,0)"/>
<path d="" fill="#000000" transform="translate(0,0)"/>
<path d="" fill="#000000" transform="translate(0,0)"/>
<path d="" fill="#000000" transform="translate(0,0)"/>
<path d="" fill="#000000" transform="translate(0,0)"/>
<path d="" fill="#000000" transform="translate(0,0)"/>
<path d="" fill="#000000" transform="translate(0,0)"/>
<path d="" fill="#000000" transform="translate(0,0)"/>
<path d="" fill="#000000" transform="translate(0,0)"/>
<path d="" fill="#000000" transform="translate(0,0)"/>
<path d="" fill="#000000" transform="translate(0,0)"/>
<path d="" fill="#000000" transform="translate(0,0)"/>
<path d="" fill="#000000" transform="translate(0,0)"/>
<path d="" fill="#020000" transform="translate(0,0)"/>
<path d="" fill="#000000" transform="translate(0,0)"/>
<path d="" fill="#000402" transform="translate(0,0)"/>
<path d="" fill="#000000" transform="translate(0,0)"/>
<path d="" fill="#000000" transform="translate(0,0)"/>
<path d="" fill="#000000" transform="translate(0,0)"/>
<path d="" fill="#000000" transform="translate(0,0)"/>
<path d="" fill="#000000" transform="translate(0,0)"/>
<path d="" fill="#000000" transform="translate(0,0)"/>
<path d="" fill="#000000" transform="translate(0,0)"/>
<path d="" fill="#000000" transform="translate(0,0)"/>
<path d="" fill="#010101" transform="translate(0,0)"/>
<path d="" fill="#000000" transform="translate(0,0)"/>
<path d="" fill="#000000" transform="translate(0,0)"/>
<path d="" fill="#000000" transform="translate(0,0)"/>
<path d="" fill="#000000" transform="translate(0,0)"/>
<path d="" fill="#000000" transform="translate(0,0)"/>
<path d="" fill="#000000" transform="translate(0,0)"/>
<path d="" fill="#000000" transform="translate(0,0)"/>
<path d="" fill="#000000" transform="translate(0,0)"/>
<path d="" fill="#000000" transform="translate(0,0)"/>
<path d="" fill="#000000" transform="translate(0,0)"/>
<path d="" fill="#000000" transform="translate(0,0)"/>
<path d="" fill="#000000" transform="translate(0,0)"/>
<path d="" fill="#000000" transform="translate(0,0)"/>
<path d="" fill="#000000" transform="translate(0,0)"/>
<path d="" fill="#000000" transform="translate(0,0)"/>
<path d="" fill="#000000" transform="translate(0,0)"/>
<path d="" fill="#000000" transform="translate(0,0)"/>
<path d="" fill="#000000" transform="translate(0,0)"/>
<path d="" fill="#000000" transform="translate(0,0)"/>
<path d="" fill="#000000" transform="translate(0,0)"/>
<path d="" fill="#000000" transform="translate(0,0)"/>
<path d="" fill="#000000" transform="translate(0,0)"/>
<path d="" fill="#000000" transform="translate(0,0)"/>
<path d="" fill="#000000" transform="translate(0,0)"/>
<path d="" fill="#000000" transform="translate(0,0)"/>
<path d="" fill="#000000" transform="translate(0,0)"/>
<path d="" fill="#000000" transform="translate(0,0)"/>
<path d="" fill="#000000" transform="translate(0,0)"/>
<path d="" fill="#000000" transform="translate(0,0)"/>
<path d="" fill="#000000" transform="translate(0,0)"/>
<path d="" fill="#000000" transform="translate(0,0)"/>
<path d="" fill="#000000" transform="translate(0,0)"/>
<path d="" fill="#000000" transform="translate(0,0)"/>
<path d="" fill="#000000" transform="translate(0,0)"/>
<path d="" fill="#000000" transform="translate(0,0)"/>
<path d="" fill="#000000" transform="translate(0,0)"/>
<path d="" fill="#000000" transform="translate(0,0)"/>
<path d="" fill="#000000" transform="translate(0,0)"/>
<path d="" fill="#000000" transform="translate(0,0)"/>
<path d="" fill="#000000" transform="translate(0,0)"/>
<path d="" fill="#000000" transform="translate(0,0)"/>
<path d="" fill="#000000" transform="translate(0,0)"/>
<path d="" fill="#000000" transform="translate(0,0)"/>
<path d="" fill="#000000" transform="translate(0,0)"/>
<path d="" fill="#000000" transform="translate(0,0)"/>
<path d="" fill="#000000" transform="translate(0,0)"/>
<path d="" fill="#000000" transform="translate(0,0)"/>
<path d="" fill="#000000" transform="translate(0,0)"/>
<path d="" fill="#000000" transform="translate(0,0)"/>
<path d="" fill="#000000" transform="translate(0,0)"/>
<path d="" fill="#000000" transform="translate(0,0)"/>
<path d="" fill="#000000" transform="translate(0,0)"/>
<path d="" fill="#000000" transform="translate(0,0)"/>
<path d="" fill="#000000" transform="translate(0,0)"/>
<path d="" fill="#000000" transform="translate(0,0)"/>
<path d="" fill="#000000" transform="translate(0,0)"/>
<path d="" fill="#000000" transform="translate(0,0)"/>
<path d="" fill="#000000" transform="translate(0,0)"/>
<path d="" fill="#000000" transform="translate(0,0)"/>
<path d="" fill="#000000" transform="translate(0,0)"/>
<path d="" fill="#000000" transform="translate(0,0)"/>
<path d="" fill="#000000" transform="translate(0,0)"/>
<path d="" fill="#000000" transform="translate(0,0)"/>
<path d="" fill="#000000" transform="translate(0,0)"/>
<path d="" fill="#000000" transform="translate(0,0)"/>
<path d="" fill="#000000" transform="translate(0,0)"/>
<path d="" fill="#000000" transform="translate(0,0)"/>
<path d="" fill="#000000" transform="translate(0,0)"/>
<path d="" fill="#000000" transform="translate(0,0)"/>
<path d="" fill="#000000" transform="translate(0,0)"/>
<path d="" fill="#000000" transform="translate(0,0)"/>
<path d="" fill="#000000" transform="translate(0,0)"/>
<path d="" fill="#000000" transform="translate(0,0)"/>
<path d="" fill="#000000" transform="translate(0,0)"/>
<path d="" fill="#000000" transform="translate(0,0)"/>
<path d="" fill="#000000" transform="translate(0,0)"/>
<path d="" fill="#000000" transform="translate(0,0)"/>
<path d="" fill="#000000" transform="translate(0,0)"/>
<path d="" fill="#000000" transform="translate(0,0)"/>
<path d="" fill="#000000" transform="translate(0,0)"/>
<path d="" fill="#000000" transform="translate(0,0)"/>
<path d="" fill="#000000" transform="translate(0,0)"/>
<path d="" fill="#000000" transform="translate(0,0)"/>
<path d="" fill="#000000" transform="translate(0,0)"/>
<path d="" fill="#000000" transform="translate(0,0)"/>
<path d="" fill="#000000" transform="translate(0,0)"/>
<path d="" fill="#000000" transform="translate(0,0)"/>
<path d="" fill="#000000" transform="translate(0,0)"/>
<path d="" fill="#000000" transform="translate(0,0)"/>
<path d="" fill="#000000" transform="translate(0,0)"/>
<path d="" fill="#000000" transform="translate(0,0)"/>
<path d="" fill="#000000" transform="translate(0,0)"/>
<path d="" fill="#000000" transform="translate(0,0)"/>
</svg>
