<svg width="32" height="32" viewBox="0 0 32 32" fill="none" xmlns="http://www.w3.org/2000/svg">
<rect x="0.4" y="0.4" width="31.2" height="31.2" rx="15.6" fill="#032541"/>
<rect x="0.4" y="0.4" width="31.2" height="31.2" rx="15.6" stroke="white" stroke-width="0.8"/>
<path d="M19.3693 10.7717V9.73169C19.3693 9.45836 19.1426 9.23169 18.8693 9.23169C18.596 9.23169 18.3693 9.45836 18.3693 9.73169V10.7317H14.036V9.73169C14.036 9.45836 13.8093 9.23169 13.536 9.23169C13.2626 9.23169 13.036 9.45836 13.036 9.73169V10.7717C11.236 10.9384 10.3626 12.0117 10.2293 13.605C10.216 13.7984 10.376 13.9584 10.5626 13.9584H21.8426C22.036 13.9584 22.196 13.7917 22.176 13.605C22.0426 12.0117 21.1693 10.9384 19.3693 10.7717Z" fill="white"/>
<path d="M20.8698 18.3984C19.3965 18.3984 18.2031 19.5918 18.2031 21.0651C18.2031 21.5651 18.3431 22.0384 18.5898 22.4384C19.0498 23.2118 19.8965 23.7318 20.8698 23.7318C21.8431 23.7318 22.6898 23.2118 23.1498 22.4384C23.3965 22.0384 23.5365 21.5651 23.5365 21.0651C23.5365 19.5918 22.3431 18.3984 20.8698 18.3984ZM22.2498 20.7784L20.8298 22.0918C20.7365 22.1784 20.6098 22.2251 20.4898 22.2251C20.3631 22.2251 20.2365 22.1784 20.1365 22.0784L19.4765 21.4184C19.2831 21.2251 19.2831 20.9051 19.4765 20.7118C19.6698 20.5184 19.9898 20.5184 20.1831 20.7118L20.5031 21.0318L21.5698 20.0451C21.7698 19.8584 22.0898 19.8718 22.2765 20.0718C22.4631 20.2718 22.4498 20.5851 22.2498 20.7784Z" fill="white"/>
<path d="M21.5365 14.9584H10.8698C10.5031 14.9584 10.2031 15.2584 10.2031 15.625V19.7317C10.2031 21.7317 11.2031 23.065 13.5365 23.065H16.8231C17.2831 23.065 17.6031 22.6184 17.4565 22.185C17.3231 21.7984 17.2098 21.3717 17.2098 21.065C17.2098 19.045 18.8565 17.3984 20.8765 17.3984C21.0698 17.3984 21.2631 17.4117 21.4498 17.445C21.8498 17.505 22.2098 17.1917 22.2098 16.7917V15.6317C22.2031 15.2584 21.9031 14.9584 21.5365 14.9584ZM14.3431 20.5384C14.2165 20.6584 14.0431 20.7317 13.8698 20.7317C13.6965 20.7317 13.5231 20.6584 13.3965 20.5384C13.2765 20.4117 13.2031 20.2384 13.2031 20.065C13.2031 19.8917 13.2765 19.7184 13.3965 19.5917C13.4631 19.5317 13.5298 19.485 13.6165 19.4517C13.8631 19.345 14.1565 19.405 14.3431 19.5917C14.4631 19.7184 14.5365 19.8917 14.5365 20.065C14.5365 20.2384 14.4631 20.4117 14.3431 20.5384ZM14.3431 18.205C14.3098 18.2317 14.2765 18.2584 14.2431 18.285C14.2031 18.3117 14.1631 18.3317 14.1231 18.345C14.0831 18.365 14.0431 18.3784 14.0031 18.385C13.9565 18.3917 13.9098 18.3984 13.8698 18.3984C13.6965 18.3984 13.5231 18.325 13.3965 18.205C13.2765 18.0784 13.2031 17.905 13.2031 17.7317C13.2031 17.5584 13.2765 17.385 13.3965 17.2584C13.5498 17.105 13.7831 17.0317 14.0031 17.0784C14.0431 17.085 14.0831 17.0984 14.1231 17.1184C14.1631 17.1317 14.2031 17.1517 14.2431 17.1784C14.2765 17.205 14.3098 17.2317 14.3431 17.2584C14.4631 17.385 14.5365 17.5584 14.5365 17.7317C14.5365 17.905 14.4631 18.0784 14.3431 18.205ZM16.6765 18.205C16.5498 18.325 16.3765 18.3984 16.2031 18.3984C16.0298 18.3984 15.8565 18.325 15.7298 18.205C15.6098 18.0784 15.5365 17.905 15.5365 17.7317C15.5365 17.5584 15.6098 17.385 15.7298 17.2584C15.9831 17.0117 16.4298 17.0117 16.6765 17.2584C16.7965 17.385 16.8698 17.5584 16.8698 17.7317C16.8698 17.905 16.7965 18.0784 16.6765 18.205Z" fill="white"/>
</svg>
